<svg width="30" height="20" viewBox="0 0 30 20" fill="none" xmlns="http://www.w3.org/2000/svg">
<path d="M0 3C0 1.34315 1.34315 0 3 0H27C28.6569 0 30 1.34315 30 3V17C30 18.6569 28.6569 20 27 20H3C1.34315 20 0 18.6569 0 17V3Z" fill="#FF5452"/>
<path d="M9.083 15H7.445V9.215C7.445 9.02433 7.445 8.82933 7.445 8.63C7.45367 8.43067 7.46233 8.23133 7.471 8.032C7.47967 7.824 7.48833 7.63333 7.497 7.46C7.41033 7.54667 7.302 7.65067 7.172 7.772C7.042 7.88467 6.90767 8.00167 6.769 8.123L5.729 8.955L4.91 7.941L7.718 5.718H9.083V15Z" fill="white"/>
<path d="M15.7555 9.813H18.2645V11.022H15.7555V13.557H14.5335V11.022H12.0375V9.813H14.5335V7.252H15.7555V9.813Z" fill="white"/>
<path d="M23.9619 15H22.3239V9.215C22.3239 9.02433 22.3239 8.82933 22.3239 8.63C22.3326 8.43067 22.3412 8.23133 22.3499 8.032C22.3586 7.824 22.3672 7.63333 22.3759 7.46C22.2892 7.54667 22.1809 7.65067 22.0509 7.772C21.9209 7.88467 21.7866 8.00167 21.6479 8.123L20.6079 8.955L19.7889 7.941L22.5969 5.718H23.9619V15Z" fill="white"/>
</svg>
