<svg width="16" height="16" viewBox="0 0 16 16" fill="none" xmlns="http://www.w3.org/2000/svg">
<g clip-path="url(#clip0_20_26)">
<path d="M15.9975 8.946C15.999 8.617 15.9472 7.37575 15.9077 7.02075C15.4527 2.9465 12.146 -0.010498 8.04549 -0.010498C3.77449 -0.010498 0.314003 3.2805 0.0792376 7.64425C0.0742376 7.7395 0.0392375 8.41525 0.0367376 8.8175L0.0354875 9.04125C0.0149719 9.13375 0.00247192 9.22925 0.00247192 9.32775V12.6818C0.00247192 13.4143 0.598222 14.01 1.33072 14.01H2.67897C3.41147 14.01 4.00746 13.4143 4.00746 12.6818V9.328C4.00746 8.5955 3.41121 7.99975 2.67896 7.99975H1.33047C1.24028 7.99977 1.15033 8.0089 1.06197 8.027C1.06947 7.86477 1.07622 7.73675 1.07799 7.698C1.28374 3.87325 4.31449 0.989502 8.04547 0.989502C11.628 0.989502 14.5162 3.573 14.9137 7.132C14.9305 7.2805 14.952 7.658 14.9692 8.037C14.8725 8.0145 14.7727 7.99974 14.6692 7.99974H13.3367C12.6042 7.99974 12.0085 8.59549 12.0085 9.32799V12.6665C12.0085 13.1722 12.296 13.608 12.713 13.832L9.503 15.0922V15.0107C9.503 14.7347 9.27899 14.5107 9.003 14.5107H7.503C7.22699 14.5107 7.003 14.7347 7.003 15.0107V15.5107C7.003 15.7867 7.22699 16.0107 7.503 16.0107H9.003C9.00725 16.0107 9.011 16.0095 9.01525 16.0095L9.9115 16.006L15.0608 13.9845C15.1283 13.9565 15.1855 13.9147 15.2325 13.8647C15.6833 13.652 15.998 13.197 15.998 12.6665V9.32797C15.998 9.24647 15.988 9.16722 15.9738 9.08996C15.9875 9.04396 15.9973 8.99621 15.9975 8.94596L15.9975 8.946ZM1.33049 8.99975H2.67877C2.86002 8.99975 3.00725 9.14675 3.00725 9.328V12.682C3.00725 12.8633 2.85975 13.0103 2.67874 13.0103H1.3305C1.14925 13.0103 1.00227 12.8632 1.00227 12.682V9.328C1.0025 9.14675 1.14949 8.99975 1.33049 8.99975ZM13.0083 9.328C13.0083 9.14675 13.1553 8.99975 13.3365 8.99975H14.669C14.8503 8.99975 14.9975 9.14675 14.9975 9.328V12.6665C14.9975 12.8478 14.85 12.9948 14.669 12.9948H13.3365C13.1553 12.9948 13.0083 12.8478 13.0083 12.6665V9.328Z" fill="black"/>
</g>
<defs>
<clipPath id="clip0_20_26">
<rect width="16" height="16" fill="white"/>
</clipPath>
</defs>
</svg>
