<svg width="24" height="24" viewBox="0 0 24 24" fill="none" xmlns="http://www.w3.org/2000/svg">
<path d="M19.485 20.154L13.223 13.892C12.723 14.318 12.148 14.6477 11.498 14.881C10.848 15.1143 10.1947 15.231 9.538 15.231C7.93667 15.231 6.58133 14.6767 5.472 13.568C4.36267 12.4593 3.808 11.1043 3.808 9.50302C3.808 7.90168 4.362 6.54601 5.47 5.43601C6.578 4.32601 7.93267 3.77035 9.534 3.76901C11.1353 3.76768 12.4913 4.32235 13.602 5.43301C14.7127 6.54368 15.268 7.89935 15.268 9.50001C15.268 10.1947 15.145 10.867 14.899 11.517C14.653 12.167 14.3297 12.723 13.929 13.185L20.191 19.446L19.485 20.154ZM9.539 14.23C10.8657 14.23 11.9857 13.7733 12.899 12.86C13.8123 11.9467 14.269 10.8263 14.269 9.49901C14.269 8.17168 13.8123 7.05168 12.899 6.13901C11.9857 5.22635 10.8657 4.76968 9.539 4.76901C8.21233 4.76835 7.092 5.22501 6.178 6.13901C5.264 7.05301 4.80733 8.17301 4.808 9.49901C4.80867 10.825 5.26533 11.945 6.178 12.859C7.09067 13.773 8.21067 14.2297 9.538 14.229" fill="black"/>
</svg>
